<?xml version="1.0" encoding="UTF-8"?>
<svg width="18px" height="18px" viewBox="0 0 18 18" version="1.1" xmlns="http://www.w3.org/2000/svg" xmlns:xlink="http://www.w3.org/1999/xlink">
    <!-- Generator: Sketch 59.1 (86144) - https://sketch.com -->
    <title>edit-24px</title>
    <desc>Created with Sketch.</desc>
    <g id="Page-1" stroke="none" stroke-width="1" fill="none" fill-rule="evenodd">
        <g id="Add-new-Route" transform="translate(-248.000000, -301.000000)">
            <g id="edit-24px" transform="translate(245.000000, 298.000000)">
                <polygon id="Path" points="0 0 24 0 24 24 0 24"></polygon>
                <path d="M14.06,9.02 L14.98,9.94 L5.92,19 L5,19 L5,18.08 L14.06,9.02 M17.66,3 C17.41,3 17.15,3.1 16.96,3.29 L15.13,5.12 L18.88,8.87 L20.71,7.04 C21.1,6.65 21.1,6.02 20.71,5.63 L18.37,3.29 C18.17,3.09 17.92,3 17.66,3 Z M14.06,6.19 L3,17.25 L3,21 L6.75,21 L17.81,9.94 L14.06,6.19 Z" id="Shape" fill="#000000" fill-rule="nonzero"></path>
            </g>
        </g>
    </g>
</svg>