<?xml version="1.0" encoding="UTF-8"?>
<svg width="18px" height="18px" viewBox="0 0 18 18" version="1.1" xmlns="http://www.w3.org/2000/svg" xmlns:xlink="http://www.w3.org/1999/xlink">
    <title>Mountain</title>
    <desc>Created with Sketch.</desc>
    <g id="Page-1" stroke="none" stroke-width="1" fill="none" fill-rule="evenodd">
        <g id="Add-new-Route" transform="translate(-135.000000, -439.000000)">
            <g id="Mountain" transform="translate(136.000000, 440.000000)">
                <path d="M8.17888544,0.357770876 L15.8552786,15.7105573 C15.9046765,15.809353 15.8646316,15.9294876 15.7658359,15.9788854 C15.7380648,15.992771 15.7074422,16 15.6763932,16 L0.323606798,16 C0.213149848,16 0.123606798,15.9104569 0.123606798,15.8 C0.123606798,15.768951 0.130835816,15.7383284 0.14472136,15.7105573 L7.82111456,0.357770876 C7.87051241,0.258975177 7.99064702,0.218930308 8.08944272,0.268328157 C8.1281482,0.287680898 8.1595327,0.319065396 8.17888544,0.357770876 Z" id="Triangle" stroke="green" stroke-width="1.5"></path>
                <polygon id="Path" fill="#D8D8D8" points="8 1.73496591 9.85360068 5.36865557 9.29591265 6.694283 7.82117077 5.65266124 7.13077088 6.91772526 6.18501732 5.36865557"></polygon>
                <polyline id="Path-2" stroke="green" points="5.68315693 5.02376172 6.99612984 7.30789819 7.82117077 5.65266124 9.43300666 6.91772526 10.2421763 5.31073535"></polyline>
            </g>
        </g>
    </g>
</svg>