<?xml version="1.0" encoding="UTF-8"?>
<svg width="23px" height="23px" viewBox="0 0 26 26" version="1.1" xmlns="http://www.w3.org/2000/svg" xmlns:xlink="http://www.w3.org/1999/xlink">
    <!-- Generator: Sketch 59.1 (86144) - https://sketch.com -->
    <title>Group</title>
    <desc>Created with Sketch.</desc>
    <g id="Page-1" stroke="none" stroke-width="1" fill="none" fill-rule="evenodd">
        <g id="Add-new-Route" transform="translate(-74.000000, -394.000000)">
            <g id="Group" transform="translate(74.000000, 394.000000)">
                <circle id="Oval" fill="#135058" cx="13" cy="13" r="13"></circle>
                <g id="Mountain" transform="translate(5.000000, 3.000000)" stroke="#EEEEEE">
                    <path d="M8.17888544,0.357770876 L15.8552786,15.7105573 C15.9046765,15.809353 15.8646316,15.9294876 15.7658359,15.9788854 C15.7380648,15.992771 15.7074422,16 15.6763932,16 L0.323606798,16 C0.213149848,16 0.123606798,15.9104569 0.123606798,15.8 C0.123606798,15.768951 0.130835816,15.7383284 0.14472136,15.7105573 L7.82111456,0.357770876 C7.87051241,0.258975177 7.99064702,0.218930308 8.08944272,0.268328157 C8.1281482,0.287680898 8.1595327,0.319065396 8.17888544,0.357770876 Z" id="Triangle" stroke-width="1.5"></path>
                    <polygon id="Path" fill="#EEEEEE" points="8 1.73496591 9.85360068 5.36865532 9.29591265 6.69428266 7.82117077 5.65266097 7.13077088 6.91772491 6.18501732 5.36865532"></polygon>
                    <polyline id="Path-2" points="5.68315693 5.02376172 6.99612984 7.30789819 7.82117077 5.65266124 9.43300666 6.91772526 10.2421763 5.31073535"></polyline>
                </g>
            </g>
        </g>
    </g>
</svg>