<?xml version="1.0" encoding="UTF-8"?>
<svg width="20px" height="24px" viewBox="0 0 20 24" version="1.1" xmlns="http://www.w3.org/2000/svg" xmlns:xlink="http://www.w3.org/1999/xlink">
    <!-- Generator: Sketch 59.1 (86144) - https://sketch.com -->
    <title>person</title>
    <desc>Created with Sketch.</desc>
    <g id="Page-1" stroke="none" stroke-width="1" fill="none" fill-rule="evenodd" opacity="0.6">
        <g id="Profile" transform="translate(-68.000000, -534.000000)" fill="#FFFFFF">
            <g id="person" transform="translate(62.000000, 530.000000)">
                <path d="M25.3333333,26.6666667 C25.3333333,27.4026667 24.7373333,28 24,28 C23.2626667,28 22.6666667,27.4026667 22.6666667,26.6666667 C22.6666667,22.9906667 19.676,20 16,20 C12.324,20 9.33333333,22.9906667 9.33333333,26.6666667 C9.33333333,27.4026667 8.73733333,28 8,28 C7.26266667,28 6.66666667,27.4026667 6.66666667,26.6666667 C6.66666667,21.52 10.8546667,17.3333333 16,17.3333333 C21.1453333,17.3333333 25.3333333,21.52 25.3333333,26.6666667 M16,6.66666667 C17.4706667,6.66666667 18.6666667,7.86266667 18.6666667,9.33333333 C18.6666667,10.804 17.4706667,12 16,12 C14.5293333,12 13.3333333,10.804 13.3333333,9.33333333 C13.3333333,7.86266667 14.5293333,6.66666667 16,6.66666667 M16,14.6666667 C18.9413333,14.6666667 21.3333333,12.2746667 21.3333333,9.33333333 C21.3333333,6.392 18.9413333,4 16,4 C13.0586667,4 10.6666667,6.392 10.6666667,9.33333333 C10.6666667,12.2746667 13.0586667,14.6666667 16,14.6666667" id="🎨-Icon-Сolor"></path>
            </g>
        </g>
    </g>
</svg>